<?xml version="1.0" encoding="UTF-8"?>
<svg xmlns="http://www.w3.org/2000/svg" xmlns:xlink="http://www.w3.org/1999/xlink" width="16px" height="16px" viewBox="0 0 8 8" version="1.1">
<g id="surface1">
<path style=" stroke:none;fill-rule:nonzero;fill:rgb(0%,0%,0%);fill-opacity:1;" d="M 3 0.5 L 3 2 L 0.5 2 L 0.5 0.5 Z M 0.5 0 C 0.222656 0 0 0.222656 0 0.5 L 0 2 C 0 2.277344 0.222656 2.5 0.5 2.5 L 3 2.5 C 3.277344 2.5 3.5 2.277344 3.5 2 L 3.5 0.5 C 3.5 0.222656 3.277344 0 3 0 Z M 7.5 6 L 7.5 7.5 L 5 7.5 L 5 6 Z M 5 5.5 C 4.722656 5.5 4.5 5.722656 4.5 6 L 4.5 7.5 C 4.5 7.777344 4.722656 8 5 8 L 7.5 8 C 7.777344 8 8 7.777344 8 7.5 L 8 6 C 8 5.722656 7.777344 5.5 7.5 5.5 Z M 3 4 L 3 7.5 L 0.5 7.5 L 0.5 4 Z M 0.5 3.5 C 0.222656 3.5 0 3.722656 0 4 L 0 7.5 C 0 7.777344 0.222656 8 0.5 8 L 3 8 C 3.277344 8 3.5 7.777344 3.5 7.5 L 3.5 4 C 3.5 3.722656 3.277344 3.5 3 3.5 Z M 7.5 0.5 L 7.5 4 L 5 4 L 5 0.5 Z M 5 0 C 4.722656 0 4.5 0.222656 4.5 0.5 L 4.5 4 C 4.5 4.277344 4.722656 4.5 5 4.5 L 7.5 4.5 C 7.777344 4.5 8 4.277344 8 4 L 8 0.5 C 8 0.222656 7.777344 0 7.5 0 Z M 5 0 "/>
</g>
</svg>
